
<svg width="11px" height="17px" viewBox="0 0 11 17" version="1.1" xmlns="http://www.w3.org/2000/svg" xmlns:xlink="http://www.w3.org/1999/xlink">
    <!-- Generator: Sketch 48.2 (47327) - http://www.bohemiancoding.com/sketch -->
    <desc>Created with Sketch.</desc>
    <defs></defs>
    <g id="Page-1" stroke="none" stroke-width="1" fill="none" fill-rule="evenodd" opacity="0.600000024">
        <g id="Startscherm-v3-—-Voorstel-Voted" transform="translate(-319.000000, -420.000000)" fill="#00CC25" fill-rule="nonzero" stroke="#00CC25" stroke-width="0.5">
            <g id="zoekertje-cost" transform="translate(286.000000, 420.000000)">
                <g id="B" transform="translate(32.992144, 0.074827)">
                    <path d="M1.65629161,8.94397469 L1.65629161,12.9190745 L6.95642476,12.9190745 C8.05411827,12.9190745 8.94397469,12.0292181 8.94397469,10.9315246 C8.94397469,9.8338311 8.05411827,8.94397469 6.95642476,8.94397469 L1.65629161,8.94397469 Z M0.993774965,7.6189414 L6.95642476,7.6189414 C8.78591395,7.6189414 10.269008,9.10203542 10.269008,10.9315246 C10.269008,12.7610138 8.78591395,14.2441078 6.95642476,14.2441078 L0.993774965,14.2441078 C0.627877127,14.2441078 0.331258322,13.947489 0.331258322,13.5815912 L0.331258322,8.28145804 C0.331258322,7.91556021 0.627877127,7.6189414 0.993774965,7.6189414 Z" id="bunt-bottom"></path>
                    <path d="M1.65629161,3.64384154 L1.65629161,7.6189414 L6.29390811,7.6189414 C7.39160163,7.6189414 8.28145804,6.72908499 8.28145804,5.63139147 C8.28145804,4.53369795 7.39160163,3.64384154 6.29390811,3.64384154 L1.65629161,3.64384154 Z M0.993774965,2.31880825 L6.29390811,2.31880825 C8.12339731,2.31880825 9.60649133,3.80190228 9.60649133,5.63139147 C9.60649133,7.46088066 8.12339731,8.94397469 6.29390811,8.94397469 L0.993774965,8.94397469 C0.627877127,8.94397469 0.331258322,8.64735588 0.331258322,8.28145804 L0.331258322,2.9813249 C0.331258322,2.61542706 0.627877127,2.31880825 0.993774965,2.31880825 Z" id="bunt-top"></path>
                    <path d="M3.51717286,1.07396802 C3.51717286,0.708070184 3.81379167,0.411451379 4.17968951,0.411451379 C4.54558734,0.411451379 4.84220615,0.708070184 4.84220615,1.07396802 L4.84220615,15.2605608 C4.84220615,15.6264586 4.54558734,15.9230774 4.17968951,15.9230774 C3.81379167,15.9230774 3.51717286,15.6264586 3.51717286,15.2605608 L3.51717286,1.07396802 Z" id="bunt-line"></path>
                </g>
            </g>
        </g>
    </g>
</svg>
